<svg version="1.1" id="Layer_1" xmlns="http://www.w3.org/2000/svg" xmlns:xlink="http://www.w3.org/1999/xlink" x="0px" y="0px"
	 width="100%" viewBox="0 0 500 500" enable-background="new 0 0 500 500" xml:space="preserve">
<path fill="#FFFFFF" opacity="1.000000" stroke="none" 
	d="
M299.000000,501.000000 
	C199.333359,501.000000 100.166718,501.000000 1.000053,501.000000 
	C1.000036,334.333405 1.000036,167.666794 1.000018,1.000143 
	C167.666565,1.000095 334.333130,1.000095 500.999756,1.000048 
	C500.999847,167.666519 500.999847,334.333038 500.999939,500.999786 
	C433.833344,501.000000 366.666656,501.000000 299.000000,501.000000 
M357.989014,241.074005 
	C357.937103,211.048615 357.885193,181.023209 357.985168,150.071701 
	C357.985168,122.816879 357.985168,95.562050 357.985168,68.003830 
	C329.395294,68.003830 301.282959,68.003830 273.008820,67.079674 
	C273.008820,60.504005 273.008820,53.928337 273.008820,47.380646 
	C258.286469,47.380646 244.390396,47.380646 229.828964,47.380646 
	C229.828964,54.448853 229.828964,61.226692 228.913147,67.994537 
	C201.004349,67.994537 173.095535,67.994537 145.167221,67.994537 
	C145.167221,95.741051 145.167221,122.869537 145.011246,150.924103 
	C145.061188,183.949814 145.111130,216.975525 145.010208,250.879868 
	C145.062180,253.254364 145.114166,255.628860 145.014755,258.929260 
	C145.009781,264.245880 144.674683,269.589172 145.101074,274.870972 
	C145.462372,279.346466 143.395142,281.905731 139.983521,284.026520 
	C139.192642,284.518188 138.584198,285.303284 137.255173,286.200439 
	C134.555542,288.269318 131.929642,290.444153 129.140793,292.384857 
	C123.470619,296.330597 120.673248,300.833344 120.757751,308.570465 
	C121.272552,355.704712 121.014786,402.847412 121.014793,449.987274 
	C121.014793,451.901062 121.014801,453.814850 121.014801,455.709320 
	C208.352798,455.709320 294.908691,455.709320 381.514099,455.709320 
	C381.707581,455.036011 381.954285,454.577942 381.954498,454.119751 
	C381.976593,403.315338 382.000610,352.510864 381.886993,301.706696 
	C381.883575,300.179199 380.800720,298.203247 379.588135,297.206329 
	C373.937042,292.560181 368.028870,288.228455 362.283722,283.694244 
	C359.513031,281.507538 357.623260,279.123413 357.862305,274.968445 
	C358.301270,267.338806 357.890869,259.660278 357.989655,251.104507 
	C357.938141,248.069702 357.886658,245.034912 357.989014,241.074005 
z"/>
<path fill="#070A08" opacity="1.000000" stroke="none" 
	d="
M357.834534,252.002151 
	C357.890869,259.660278 358.301270,267.338806 357.862305,274.968445 
	C357.623260,279.123413 359.513031,281.507538 362.283722,283.694244 
	C368.028870,288.228455 373.937042,292.560181 379.588135,297.206329 
	C380.800720,298.203247 381.883575,300.179199 381.886993,301.706696 
	C382.000610,352.510864 381.976593,403.315338 381.954498,454.119751 
	C381.954285,454.577942 381.707581,455.036011 381.514099,455.709320 
	C294.908691,455.709320 208.352798,455.709320 121.014801,455.709320 
	C121.014801,453.814850 121.014793,451.901062 121.014793,449.987274 
	C121.014786,402.847412 121.272552,355.704712 120.757751,308.570465 
	C120.673248,300.833344 123.470619,296.330597 129.140793,292.384857 
	C131.929642,290.444153 134.555542,288.269318 137.932495,286.233887 
	C144.776077,287.199188 150.942337,288.131012 157.043091,289.403351 
	C155.076920,291.800476 153.176270,293.857086 150.329666,296.937286 
	C159.695312,296.937286 167.820389,296.937286 176.417145,296.957336 
	C226.262131,296.977905 275.635437,296.978424 325.476868,296.983154 
	C333.912842,296.987366 341.880768,296.987366 349.848663,296.987366 
	C350.158569,296.269073 350.468506,295.550751 350.778412,294.832458 
	C345.517151,289.880157 340.255920,284.927856 335.087097,279.584534 
	C339.003601,278.533264 342.827667,277.873016 347.401031,277.083405 
	C346.117523,276.078094 345.557678,275.490173 344.877258,275.129974 
	C338.739166,271.880859 332.363861,273.604889 325.916962,273.832794 
	C311.359802,274.347473 296.769501,274.132080 282.199158,273.862610 
	C279.782623,273.817902 277.398895,271.998993 275.416656,271.000000 
	C277.222198,270.999603 278.611115,270.999176 280.466125,270.999146 
	C285.621490,270.999268 290.310760,270.999023 295.468475,270.999176 
	C313.482758,272.140106 329.967529,269.083954 344.866211,259.126038 
	C348.951233,256.395691 353.499054,254.357803 357.834534,252.002151 
M224.271820,325.118286 
	C216.201172,325.093567 208.130524,325.068878 199.115570,325.012268 
	C183.636368,325.009003 168.155685,325.119965 152.679001,324.920929 
	C148.885239,324.872192 147.907837,326.098938 147.922852,329.771210 
	C148.051529,361.228455 148.076599,392.686890 147.900452,424.143646 
	C147.877121,428.307587 149.348068,429.112244 153.092453,429.070099 
	C168.736145,428.893982 184.382858,428.985626 200.959808,428.995178 
	C209.041214,428.915253 217.122635,428.835327 226.097977,428.946198 
	C243.330917,428.882507 260.563843,428.818848 278.755859,428.920776 
	C286.827972,428.940338 294.900085,428.959900 303.912811,428.997528 
	C319.225830,428.997894 334.539795,428.908264 349.851227,429.064301 
	C353.509308,429.101593 355.126404,428.441833 355.101868,424.199921 
	C354.920135,392.742706 354.952026,361.283722 355.073730,329.825928 
	C355.087646,326.225464 354.243988,324.865936 350.375549,324.918610 
	C334.566101,325.133881 318.752319,325.030304 302.015167,325.031250 
	C293.932098,325.119324 285.849030,325.207367 276.871399,325.137146 
	C259.658478,325.190063 242.445557,325.242950 224.271820,325.118286 
z"/>
<path fill="#070A08" opacity="1.000000" stroke="none" 
	d="
M145.167221,149.998016 
	C145.167221,122.869537 145.167221,95.741051 145.167221,67.994537 
	C173.095535,67.994537 201.004349,67.994537 229.600372,68.389450 
	C244.086716,68.900337 257.885773,69.028130 271.685120,69.084229 
	C272.178833,69.086243 272.675385,68.379990 273.170624,68.003830 
	C301.282959,68.003830 329.395294,68.003830 357.985168,68.003830 
	C357.985168,95.562050 357.985168,122.816879 357.534424,150.588501 
	C350.064789,153.402176 343.045868,155.699051 336.016907,157.559204 
	C335.992950,155.083755 335.979126,153.045044 335.977417,150.537415 
	C335.986328,140.046539 335.983093,130.024567 335.987488,119.533829 
	C335.995575,110.787964 335.877838,102.508316 336.055939,94.235031 
	C336.125214,91.017441 335.107147,89.873215 331.821259,89.940926 
	C322.885712,90.125046 313.944031,90.011009 304.535828,90.009415 
	C268.709137,90.007797 233.351349,90.011917 197.525574,90.011047 
	C188.605469,90.004913 180.148239,90.175400 171.703568,89.923874 
	C167.968826,89.812630 166.861130,91.004410 166.924698,94.715523 
	C167.137558,107.141533 167.015060,119.573273 167.013885,132.471161 
	C166.992966,140.624680 166.979126,148.309845 166.608917,155.956696 
	C159.974396,151.272781 152.604385,150.515839 145.167221,149.998016 
z"/>
<path fill="#071008" opacity="1.000000" stroke="none" 
	d="
M145.089233,150.461060 
	C152.604385,150.515839 159.974396,151.272781 166.627106,156.209900 
	C167.010895,156.670334 167.020142,156.839249 167.020416,157.475983 
	C167.026337,165.967758 167.041214,173.991730 167.040497,182.472198 
	C167.038757,186.287979 167.052597,189.647263 167.045532,193.422882 
	C167.044540,195.229462 167.064453,196.619705 167.061859,198.477066 
	C167.062286,204.970276 167.085251,210.996353 167.081879,217.488800 
	C167.071976,224.626816 167.088409,231.298492 167.067474,238.440399 
	C167.024231,241.710068 167.010071,244.509476 167.013885,247.308868 
	C167.030182,259.297455 167.032104,259.297455 179.465576,258.896790 
	C181.591431,258.961731 183.292969,258.998779 185.002563,259.420105 
	C186.769684,261.197571 188.439377,263.654785 190.302277,263.811249 
	C202.324738,264.820892 214.382248,265.655060 226.441986,265.918121 
	C241.897461,266.255219 257.366028,265.968597 272.828491,266.043976 
	C274.553833,266.052399 276.276245,266.667480 278.046326,267.330322 
	C278.728394,268.772552 279.364197,269.885681 280.000000,270.998779 
	C278.611115,270.999176 277.222198,270.999603 274.947998,271.000000 
	C241.714172,270.066711 209.283676,273.108063 176.948456,268.652222 
	C176.328049,267.743500 175.839172,267.055634 175.179657,266.635834 
	C167.499237,261.747192 159.860352,256.786407 152.047409,252.117630 
	C150.045319,250.921249 147.471970,250.680847 145.161072,250.001236 
	C145.111130,216.975525 145.061188,183.949814 145.089233,150.461060 
z"/>
<path fill="#040605" opacity="1.000000" stroke="none" 
	d="
M177.000717,268.997559 
	C209.283676,273.108063 241.714172,270.066711 274.531342,271.000000 
	C277.398895,271.998993 279.782623,273.817902 282.199158,273.862610 
	C296.769501,274.132080 311.359802,274.347473 325.916962,273.832794 
	C332.363861,273.604889 338.739166,271.880859 344.877258,275.129974 
	C345.557678,275.490173 346.117523,276.078094 347.401031,277.083405 
	C342.827667,277.873016 339.003601,278.533264 334.619446,279.592377 
	C328.041229,279.998199 322.023041,280.005157 315.535706,280.007202 
	C302.114105,280.002319 289.161530,279.967285 276.209595,280.044220 
	C274.475952,280.054504 272.745667,280.630890 270.636536,280.993896 
	C269.517822,281.177032 268.776398,281.311340 267.569153,281.384705 
	C253.088272,281.426666 239.073273,281.529572 224.605331,281.482666 
	C215.144974,281.407135 206.137558,281.481445 196.687759,281.405731 
	C193.228516,281.206085 190.211639,281.156494 186.799866,280.931702 
	C181.682190,280.504364 176.962097,280.159790 172.235992,280.022430 
	C165.729553,279.833282 161.962753,283.848755 158.681519,288.992188 
	C157.947052,289.026855 157.527817,289.044830 157.108597,289.062836 
	C150.942337,288.131012 144.776077,287.199188 138.250824,286.110352 
	C138.584198,285.303284 139.192642,284.518188 139.983521,284.026520 
	C143.395142,281.905731 145.462372,279.346466 145.101074,274.870972 
	C144.674683,269.589172 145.009781,264.245880 145.477753,258.466095 
	C147.356979,258.363251 148.816605,258.604645 150.182388,259.103180 
	C159.133148,262.370300 168.063614,265.692993 177.000717,268.997559 
z"/>
<path fill="#081009" opacity="1.000000" stroke="none" 
	d="
M336.026978,157.995926 
	C343.045868,155.699051 350.064789,153.402176 357.458496,151.051559 
	C357.885193,181.023209 357.937103,211.048615 357.570679,241.578735 
	C355.043274,243.613907 352.954071,245.172699 350.821106,246.669113 
	C345.889679,250.128799 340.937042,253.558289 335.983215,256.531799 
	C335.942627,250.031479 335.911804,243.999344 335.908173,237.501724 
	C335.910583,230.695969 335.885803,224.355728 335.907288,217.547836 
	C335.936493,211.393158 335.919464,205.706100 335.937225,199.552094 
	C335.955627,194.396622 335.939270,189.708115 335.947083,184.552139 
	C335.963898,179.060684 335.956573,174.036697 335.965454,168.554077 
	C335.996796,164.728943 336.011871,161.362427 336.026978,157.995926 
z"/>
<path fill="#D2D340" opacity="1.000000" stroke="none" 
	d="
M273.089722,67.541748 
	C272.675385,68.379990 272.178833,69.086243 271.685120,69.084229 
	C257.885773,69.028130 244.086716,68.900337 230.058289,68.394440 
	C229.828964,61.226692 229.828964,54.448853 229.828964,47.380646 
	C244.390396,47.380646 258.286469,47.380646 273.008820,47.380646 
	C273.008820,53.928337 273.008820,60.504005 273.089722,67.541748 
z"/>
<path fill="#071008" opacity="1.000000" stroke="none" 
	d="
M335.992981,257.000000 
	C340.937042,253.558289 345.889679,250.128799 350.821106,246.669113 
	C352.954071,245.172699 355.043274,243.613907 357.493774,242.041779 
	C357.886658,245.034912 357.938141,248.069702 357.912109,251.553329 
	C353.499054,254.357803 348.951233,256.395691 344.866211,259.126038 
	C329.967529,269.083954 313.482758,272.140106 295.559113,270.602600 
	C299.180511,269.803772 303.190338,268.988373 307.176666,269.090424 
	C314.358154,269.274170 321.122742,268.002228 327.216705,264.258270 
	C329.156921,263.066223 330.424591,260.779510 332.373413,258.981354 
	C333.828918,258.312683 334.910950,257.656342 335.992981,257.000000 
z"/>
<path fill="#070A08" opacity="1.000000" stroke="none" 
	d="
M176.948456,268.652222 
	C168.063614,265.692993 159.133148,262.370300 150.182388,259.103180 
	C148.816605,258.604645 147.356979,258.363251 145.553452,258.003143 
	C145.114166,255.628860 145.062180,253.254364 145.085632,250.440552 
	C147.471970,250.680847 150.045319,250.921249 152.047409,252.117630 
	C159.860352,256.786407 167.499237,261.747192 175.179657,266.635834 
	C175.839172,267.055634 176.328049,267.743500 176.948456,268.652222 
z"/>
<path fill="#101D1D" opacity="1.000000" stroke="none" 
	d="
M200.028458,428.979095 
	C184.382858,428.985626 168.736145,428.893982 153.092453,429.070099 
	C149.348068,429.112244 147.877121,428.307587 147.900452,424.143646 
	C148.076599,392.686890 148.051529,361.228455 147.922852,329.771210 
	C147.907837,326.098938 148.885239,324.872192 152.679001,324.920929 
	C168.155685,325.119965 183.636368,325.009003 199.550873,325.491180 
	C199.966858,334.263702 199.947540,342.557281 199.798569,350.967438 
	C199.668915,351.083984 199.331375,351.173126 198.993988,351.127655 
	C198.429901,351.085907 198.203217,351.089630 197.510025,351.067963 
	C190.728928,351.033234 184.412262,351.115631 178.100677,350.972687 
	C175.277298,350.908752 173.869446,351.552521 173.898880,354.800049 
	C174.032867,369.588531 174.030807,384.379517 173.899704,399.168030 
	C173.871460,402.355286 175.159958,403.123077 178.046707,403.052856 
	C184.689957,402.891205 191.338959,402.966248 198.310028,402.944275 
	C198.848801,402.914825 199.063187,402.886292 199.458496,402.910645 
	C199.639420,402.963593 199.927994,403.206238 199.926239,403.661987 
	C199.959152,412.404846 199.993805,420.691956 200.028458,428.979095 
z"/>
<path fill="#101D1D" opacity="1.000000" stroke="none" 
	d="
M302.940155,325.044159 
	C318.752319,325.030304 334.566101,325.133881 350.375549,324.918610 
	C354.243988,324.865936 355.087646,326.225464 355.073730,329.825928 
	C354.952026,361.283722 354.920135,392.742706 355.101868,424.199921 
	C355.126404,428.441833 353.509308,429.101593 349.851227,429.064301 
	C334.539795,428.908264 319.225830,428.997894 303.468140,428.522491 
	C303.039551,419.767578 303.055664,411.487732 303.217529,403.086304 
	C303.363281,402.964783 303.727600,402.858124 304.047974,402.901031 
	C304.583679,402.944366 304.799011,402.944794 305.481628,402.966522 
	C312.263519,402.994690 318.580078,402.910583 324.891724,403.049835 
	C327.706879,403.111938 329.130157,402.482758 329.100830,399.229828 
	C328.967529,384.441528 328.969513,369.650696 329.100708,354.862366 
	C329.128937,351.682373 327.858307,350.896576 324.961578,350.969757 
	C318.318726,351.137604 311.669891,351.066925 304.683624,351.087952 
	C304.119202,351.113129 303.894653,351.143402 303.500977,351.128906 
	C303.331848,351.084137 303.070648,350.851349 303.072998,350.392029 
	C303.030273,341.636505 302.985199,333.340332 302.940155,325.044159 
z"/>
<path fill="#499684" opacity="1.000000" stroke="none" 
	d="
M277.796814,428.755188 
	C260.563843,428.818848 243.330917,428.882507 225.626312,428.403534 
	C225.113113,419.595245 225.071594,411.329590 225.228973,402.989624 
	C225.427872,402.915283 225.848511,402.973694 226.328461,402.954834 
	C243.589584,402.948700 260.370789,402.961426 277.361633,402.944702 
	C277.571289,402.915253 277.968048,403.063293 277.944305,403.527527 
	C277.879303,412.246246 277.838043,420.500702 277.796814,428.755188 
z"/>
<path fill="#4C9684" opacity="1.000000" stroke="none" 
	d="
M225.232635,325.295837 
	C242.445557,325.242950 259.658478,325.190063 277.352112,325.659637 
	C277.866150,334.455048 277.899445,342.727936 277.726074,351.067352 
	C277.519409,351.133850 277.091888,351.058319 276.618256,351.113190 
	C268.051025,351.140930 259.957428,351.113770 251.404602,351.074188 
	C242.338226,351.167908 233.731094,351.274078 225.088196,351.242004 
	C225.052444,351.103821 224.995132,350.824158 225.029938,350.367493 
	C225.120712,341.705841 225.176666,333.500854 225.232635,325.295837 
z"/>
<path fill="#22583D" opacity="1.000000" stroke="none" 
	d="
M278.276337,428.837952 
	C277.838043,420.500702 277.879303,412.246246 278.417908,403.530212 
	C286.967438,403.115021 295.019623,403.161438 303.071808,403.207855 
	C303.055664,411.487732 303.039551,419.767578 302.997803,428.513428 
	C294.900085,428.959900 286.827972,428.940338 278.276337,428.837952 
z"/>
<path fill="#22583D" opacity="1.000000" stroke="none" 
	d="
M277.932739,351.000854 
	C277.899445,342.727936 277.866150,334.455048 277.799408,325.738770 
	C285.849030,325.207367 293.932098,325.119324 302.477661,325.037720 
	C302.985199,333.340332 303.030273,341.636505 302.600403,350.438110 
	C294.061188,350.962646 285.996948,350.981750 277.932739,351.000854 
z"/>
<path fill="#22583D" opacity="1.000000" stroke="none" 
	d="
M224.752228,325.207062 
	C225.176666,333.500854 225.120712,341.705841 224.564255,350.428253 
	C216.018585,350.914062 207.973404,350.882477 199.928223,350.850891 
	C199.947540,342.557281 199.966858,334.263702 200.023026,325.507141 
	C208.130524,325.068878 216.201172,325.093567 224.752228,325.207062 
z"/>
<path fill="#22583D" opacity="1.000000" stroke="none" 
	d="
M225.030075,403.063965 
	C225.071594,411.329590 225.113113,419.595245 225.179337,428.308136 
	C217.122635,428.835327 209.041214,428.915253 200.494141,428.987122 
	C199.993805,420.691956 199.959152,412.404846 200.398041,403.610992 
	C208.924423,403.090851 216.977249,403.077393 225.030075,403.063965 
z"/>
<path fill="#10221E" opacity="1.000000" stroke="none" 
	d="
M316.004883,280.012146 
	C322.023041,280.005157 328.041229,279.998199 334.527039,279.983398 
	C340.255920,284.927856 345.517151,289.880157 350.778412,294.832458 
	C350.468506,295.550751 350.158569,296.269073 349.848663,296.987366 
	C341.880768,296.987366 333.912842,296.987366 325.462402,296.588684 
	C324.933411,295.665344 324.886932,295.140686 324.831787,294.296844 
	C322.471405,290.706390 320.119720,287.435150 317.730774,283.870483 
	C317.113892,282.777008 316.534271,281.976898 315.969910,280.885742 
	C315.991730,280.400543 315.998322,280.206329 316.004883,280.012146 
z"/>
<path fill="#10161C" opacity="1.000000" stroke="none" 
	d="
M324.840454,294.616028 
	C324.886932,295.140686 324.933411,295.665344 324.994324,296.584473 
	C275.635437,296.978424 226.262131,296.977905 176.507370,296.575928 
	C176.633514,295.601044 177.141113,295.027618 178.006195,294.545410 
	C181.256165,294.454041 184.148682,294.271423 187.430664,294.142456 
	C188.864410,294.165741 189.908676,294.135437 191.414124,294.134094 
	C194.616730,294.346985 197.358154,294.530945 200.254593,295.026672 
	C201.509811,295.557251 202.609818,295.966034 203.710266,295.967224 
	C235.131271,296.001801 266.552338,296.010590 297.973206,295.942566 
	C299.284424,295.939728 300.593903,295.157562 302.349030,294.572998 
	C310.142731,294.477051 317.491577,294.546539 324.840454,294.616028 
z"/>
<path fill="#081009" opacity="1.000000" stroke="none" 
	d="
M332.000000,258.993713 
	C330.424591,260.779510 329.156921,263.066223 327.216705,264.258270 
	C321.122742,268.002228 314.358154,269.274170 307.176666,269.090424 
	C303.190338,268.988373 299.180511,269.803772 295.090637,270.602203 
	C290.310760,270.999023 285.621490,270.999268 280.466125,270.999146 
	C279.364197,269.885681 278.728394,268.772552 278.513123,267.329773 
	C288.655334,266.665009 298.404907,266.664398 308.087097,265.856201 
	C313.060791,265.441040 319.033722,265.654877 321.371582,258.994263 
	C322.478577,258.931702 323.216522,258.890747 324.401062,258.898651 
	C327.231781,258.962921 329.615875,258.978302 332.000000,258.993713 
z"/>
<path fill="#153626" opacity="1.000000" stroke="none" 
	d="
M177.648727,294.454224 
	C177.141113,295.027618 176.633514,295.601044 176.035690,296.555847 
	C167.820389,296.937286 159.695312,296.937286 150.329666,296.937286 
	C153.176270,293.857086 155.076920,291.800476 157.043091,289.403351 
	C157.527817,289.044830 157.947052,289.026855 159.150024,289.007599 
	C166.600189,289.323700 173.266586,289.641083 179.941513,290.278290 
	C179.182938,291.883484 178.415833,293.168854 177.648727,294.454224 
z"/>
<path fill="#0F1A1C" opacity="1.000000" stroke="none" 
	d="
M197.993561,90.016037 
	C233.351349,90.011917 268.709137,90.007797 304.480835,90.421127 
	C304.263580,97.558342 303.632385,104.278107 302.532440,110.999268 
	C267.708710,110.999832 233.353745,110.999001 198.999222,110.530975 
	C198.664291,103.381203 198.328918,96.698616 197.993561,90.016037 
z"/>
<path fill="#10231E" opacity="1.000000" stroke="none" 
	d="
M197.525574,90.011047 
	C198.328918,96.698616 198.664291,103.381203 198.563065,110.531693 
	C189.040039,111.007072 187.369263,112.931007 187.983414,121.680679 
	C188.527969,129.439194 188.666901,137.226196 188.644531,144.949585 
	C187.518494,143.903320 186.649643,142.962265 185.960388,141.904221 
	C180.874649,134.097305 173.651642,130.301971 167.020966,132.002823 
	C167.015060,119.573273 167.137558,107.141533 166.924698,94.715523 
	C166.861130,91.004410 167.968826,89.812630 171.703568,89.923874 
	C180.148239,90.175400 188.605469,90.004913 197.525574,90.011047 
z"/>
<path fill="#10221E" opacity="1.000000" stroke="none" 
	d="
M303.001221,110.997864 
	C303.632385,104.278107 304.263580,97.558342 304.949768,90.426865 
	C313.944031,90.011009 322.885712,90.125046 331.821259,89.940926 
	C335.107147,89.873215 336.125214,91.017441 336.055939,94.235031 
	C335.877838,102.508316 335.995575,110.787964 335.654663,119.482658 
	C334.226471,118.977501 333.138672,118.054756 330.354340,115.692848 
	C328.056732,118.761314 325.924408,121.892372 323.497070,124.775009 
	C320.807495,127.969032 317.848267,130.935989 315.002441,133.533051 
	C314.996460,127.284813 315.208466,121.492264 314.855621,115.734322 
	C314.756287,114.113205 313.000061,112.593620 311.553650,111.019852 
	C308.402740,111.007439 305.701996,111.002647 303.001221,110.997864 
z"/>
<path fill="#102B1C" opacity="1.000000" stroke="none" 
	d="
M167.013885,132.471161 
	C173.651642,130.301971 180.874649,134.097305 185.960388,141.904221 
	C186.649643,142.962265 187.518494,143.903320 188.649200,145.399536 
	C188.996552,148.600769 188.998886,151.301056 188.709412,154.282684 
	C188.556458,157.772705 186.007950,161.429764 189.994568,164.447083 
	C190.329224,176.798019 190.731171,188.697784 190.901657,200.600876 
	C190.922516,202.056961 189.702469,203.530838 188.804260,204.834839 
	C188.372131,204.113632 188.193222,203.554077 188.016296,202.566635 
	C188.012573,200.425842 188.006897,198.712921 188.003296,196.624863 
	C188.003983,195.499405 188.002594,194.749100 188.002548,193.561401 
	C188.002182,191.083084 188.000488,189.042160 187.999832,186.551041 
	C189.813202,178.555984 185.659302,174.391754 179.572693,171.414764 
	C178.105331,170.697083 176.337067,170.571335 174.910858,169.797836 
	C172.316956,168.391037 170.237442,166.779388 172.274902,163.175232 
	C173.221710,161.500366 173.093536,159.217773 173.452667,157.210678 
	C171.311584,157.143173 169.170486,157.075684 167.029404,157.008179 
	C167.020142,156.839249 167.010895,156.670334 166.983459,156.248215 
	C166.979126,148.309845 166.992966,140.624680 167.013885,132.471161 
z"/>
<path fill="#11281E" opacity="1.000000" stroke="none" 
	d="
M315.006470,134.001831 
	C317.848267,130.935989 320.807495,127.969032 323.497070,124.775009 
	C325.924408,121.892372 328.056732,118.761314 330.354340,115.692848 
	C333.138672,118.054756 334.226471,118.977501 335.647034,119.951416 
	C335.983093,130.024567 335.986328,140.046539 335.611511,150.493820 
	C333.524200,150.930847 331.608368,150.441193 330.143066,151.044968 
	C325.010681,153.159729 320.033600,155.651443 314.994598,157.531387 
	C314.996582,149.375778 315.001526,141.688812 315.006470,134.001831 
z"/>
<path fill="#113121" opacity="1.000000" stroke="none" 
	d="
M314.997559,158.000000 
	C320.033600,155.651443 325.010681,153.159729 330.143066,151.044968 
	C331.608368,150.441193 333.524200,150.930847 335.599365,150.962723 
	C335.979126,153.045044 335.992950,155.083755 336.016907,157.559204 
	C336.011871,161.362427 335.996796,164.728943 335.599335,168.506882 
	C332.419830,169.304520 329.439453,169.208923 326.867462,170.187119 
	C322.764862,171.747452 318.933929,174.022079 314.975708,175.575531 
	C314.974670,169.437607 314.986115,163.718811 314.997559,158.000000 
z"/>
<path fill="#09180A" opacity="1.000000" stroke="none" 
	d="
M321.002563,259.015900 
	C319.033722,265.654877 313.060791,265.441040 308.087097,265.856201 
	C298.404907,266.664398 288.655334,266.665009 278.466827,267.000671 
	C276.276245,266.667480 274.553833,266.052399 272.828491,266.043976 
	C257.366028,265.968597 241.897461,266.255219 226.441986,265.918121 
	C214.382248,265.655060 202.324738,264.820892 190.302277,263.811249 
	C188.439377,263.654785 186.769684,261.197571 185.261780,259.368713 
	C185.685822,258.899689 185.858704,258.866241 186.485352,258.878418 
	C190.306381,258.881989 193.673660,258.839935 197.504608,258.843170 
	C204.982483,258.845337 211.996674,258.802216 219.467072,258.825806 
	C223.618942,258.845367 227.314606,258.798309 231.473892,258.814941 
	C251.955673,258.832886 271.973816,258.787079 292.448456,258.816315 
	C296.592590,258.854950 300.280243,258.818512 304.424896,258.849915 
	C308.246552,258.882782 311.611237,258.847870 315.375610,258.868011 
	C316.847015,258.886505 317.918732,258.850006 319.324646,258.857391 
	C320.106781,258.939484 320.554657,258.977692 321.002563,259.015900 
z"/>
<path fill="#155523" opacity="1.000000" stroke="none" 
	d="
M186.031586,258.832794 
	C185.858704,258.866241 185.685822,258.899689 185.253708,258.984497 
	C183.292969,258.998779 181.591431,258.961731 179.452728,258.523102 
	C175.913483,251.829865 172.860382,245.512878 169.640182,239.282272 
	C169.283630,238.592377 167.972992,238.395615 167.104828,237.970154 
	C167.088409,231.298492 167.071976,224.626816 167.448669,217.475342 
	C169.406952,214.967468 171.665680,213.155533 172.380234,210.862442 
	C173.550934,207.105423 175.746994,204.897339 179.329956,204.097275 
	C182.165436,203.464096 185.115265,203.343002 188.014313,202.994507 
	C188.193222,203.554077 188.372131,204.113632 188.787720,205.223816 
	C188.710861,207.506958 188.397339,209.239471 187.705444,210.985901 
	C178.910889,214.075180 175.344574,229.271744 177.880966,236.639343 
	C180.445770,244.089523 183.302643,251.439133 186.031586,258.832794 
z"/>
<path fill="#10341C" opacity="1.000000" stroke="none" 
	d="
M167.020416,157.475983 
	C169.170486,157.075684 171.311584,157.143173 173.452667,157.210678 
	C173.093536,159.217773 173.221710,161.500366 172.274902,163.175232 
	C170.237442,166.779388 172.316956,168.391037 174.910858,169.797836 
	C176.337067,170.571335 178.105331,170.697083 179.572693,171.414764 
	C185.659302,174.391754 189.813202,178.555984 187.626358,186.510040 
	C180.519928,185.284714 173.788010,183.650223 167.056107,182.015717 
	C167.041214,173.991730 167.026337,165.967758 167.020416,157.475983 
z"/>
<path fill="#124A1E" opacity="1.000000" stroke="none" 
	d="
M188.016296,202.566650 
	C185.115265,203.343002 182.165436,203.464096 179.329956,204.097275 
	C175.746994,204.897339 173.550934,207.105423 172.380234,210.862442 
	C171.665680,213.155533 169.406952,214.967468 167.474991,217.008987 
	C167.085251,210.996353 167.062286,204.970276 167.481964,198.473679 
	C174.616806,197.668777 181.309021,197.334396 188.001221,197.000000 
	C188.006897,198.712921 188.012573,200.425842 188.016296,202.566650 
z"/>
<path fill="#113F1F" opacity="1.000000" stroke="none" 
	d="
M167.040497,182.472198 
	C173.788010,183.650223 180.519928,185.284714 187.625305,186.960205 
	C188.000488,189.042160 188.002182,191.083084 187.591431,193.553101 
	C180.474808,193.656952 173.770615,193.331757 167.066437,193.006561 
	C167.052597,189.647263 167.038757,186.287979 167.040497,182.472198 
z"/>
<path fill="#12451C" opacity="1.000000" stroke="none" 
	d="
M167.067474,238.440399 
	C167.972992,238.395615 169.283630,238.592377 169.640182,239.282272 
	C172.860382,245.512878 175.913483,251.829865 179.028397,258.495178 
	C167.032104,259.297455 167.030182,259.297455 167.013885,247.308868 
	C167.010071,244.509476 167.024231,241.710068 167.067474,238.440399 
z"/>
<path fill="#12451C" opacity="1.000000" stroke="none" 
	d="
M167.045532,193.422882 
	C173.770615,193.331757 180.474808,193.656952 187.590088,193.990479 
	C188.002594,194.749100 188.003983,195.499405 188.003296,196.624863 
	C181.309021,197.334396 174.616806,197.668777 167.504486,198.006561 
	C167.064453,196.619705 167.044540,195.229462 167.045532,193.422882 
z"/>
<path fill="#37BC55" opacity="1.000000" stroke="none" 
	d="
M225.058273,281.632477 
	C239.073273,281.529572 253.088272,281.426666 267.916199,281.585419 
	C274.809296,281.937683 280.889496,282.028290 287.022339,282.456390 
	C288.611938,284.150879 290.197540,285.457275 291.674927,286.876343 
	C294.156281,289.259705 296.568817,291.714783 298.544556,294.198120 
	C268.049347,294.221069 238.019867,294.185577 208.022385,293.788818 
	C211.943253,290.933807 215.876511,288.505707 219.702072,285.918304 
	C221.590073,284.641388 223.279175,283.070404 225.058273,281.632477 
z"/>
<path fill="#30B24B" opacity="1.000000" stroke="none" 
	d="
M224.605331,281.482666 
	C223.279175,283.070404 221.590073,284.641388 219.702072,285.918304 
	C215.876511,288.505707 211.943253,290.933807 207.583160,293.853363 
	C204.774460,294.424408 202.437027,294.569672 200.099579,294.714935 
	C197.358154,294.530945 194.616730,294.346985 191.456848,293.766235 
	C193.068970,289.431549 195.099548,285.493652 197.130127,281.555756 
	C206.137558,281.481445 215.144974,281.407135 224.605331,281.482666 
z"/>
<path fill="#081009" opacity="1.000000" stroke="none" 
	d="
M179.932983,289.958466 
	C173.266586,289.641083 166.600189,289.323700 159.465271,288.990906 
	C161.962753,283.848755 165.729553,279.833282 172.235992,280.022430 
	C176.962097,280.159790 181.682190,280.504364 186.645355,281.155609 
	C186.572098,282.183472 186.258469,282.812256 185.634308,283.612915 
	C183.526840,285.842712 181.729904,287.900574 179.932983,289.958466 
z"/>
<path fill="#248E39" opacity="1.000000" stroke="none" 
	d="
M185.944824,283.441010 
	C186.258469,282.812256 186.572098,282.183472 187.040253,281.330811 
	C190.211639,281.156494 193.228516,281.206085 196.687744,281.405731 
	C195.099548,285.493652 193.068970,289.431549 190.995651,293.737305 
	C189.908676,294.135437 188.864410,294.165741 187.373016,293.722351 
	C186.598846,289.979431 186.271835,286.710205 185.944824,283.441010 
z"/>
<path fill="#248E39" opacity="1.000000" stroke="none" 
	d="
M286.969666,282.118927 
	C280.889496,282.028290 274.809296,281.937683 268.382080,281.646332 
	C268.776398,281.311340 269.517822,281.177032 271.101318,281.046326 
	C286.613861,281.092224 301.284241,281.134521 315.954651,281.176788 
	C316.534271,281.976898 317.113892,282.777008 317.488220,284.119781 
	C316.982910,286.042816 316.682892,287.423187 316.365814,288.882141 
	C310.288666,288.056458 315.744202,284.347198 313.974640,282.118927 
	C305.192078,282.118927 296.080872,282.118927 286.969666,282.118927 
z"/>
<path fill="#10051F" opacity="1.000000" stroke="none" 
	d="
M315.969910,280.885742 
	C301.284241,281.134521 286.613861,281.092224 271.478638,280.997528 
	C272.745667,280.630890 274.475952,280.054504 276.209595,280.044220 
	C289.161530,279.967285 302.114105,280.002319 315.535706,280.007202 
	C315.998322,280.206329 315.991730,280.400543 315.969910,280.885742 
z"/>
<path fill="#195A2C" opacity="1.000000" stroke="none" 
	d="
M321.371582,258.994263 
	C320.554657,258.977692 320.106781,258.939484 319.333862,258.504272 
	C320.380066,255.313675 322.063477,252.625107 323.047211,249.701172 
	C324.418152,245.626266 327.581451,241.716507 324.998077,236.560059 
	C324.541656,232.197510 324.322418,228.230698 323.567902,224.368454 
	C322.613159,219.481110 320.233002,215.502609 315.007507,213.638443 
	C314.662323,212.177338 314.323547,211.084213 313.981201,209.748566 
	C313.977631,209.506012 313.920624,209.024231 313.950958,208.643524 
	C313.953613,207.500534 313.925934,206.738235 314.138062,205.962769 
	C314.377899,205.949585 314.857605,205.924683 315.284973,205.946411 
	C320.209442,205.938217 324.771332,206.425491 326.485321,211.290619 
	C328.147949,216.010071 331.450195,217.572296 335.861023,218.015472 
	C335.885803,224.355728 335.910583,230.695969 335.567841,237.554260 
	C334.134918,239.051971 332.742035,239.845886 332.062195,241.044296 
	C329.462708,245.626297 327.026367,250.305603 324.685486,255.026108 
	C324.130096,256.146088 324.181915,257.567200 323.954468,258.849792 
	C323.216522,258.890747 322.478577,258.931702 321.371582,258.994263 
z"/>
<path fill="#133B25" opacity="1.000000" stroke="none" 
	d="
M314.988159,175.994659 
	C318.933929,174.022079 322.764862,171.747452 326.867462,170.187119 
	C329.439453,169.208923 332.419830,169.304520 335.583099,168.965515 
	C335.956573,174.036697 335.963898,179.060684 335.524536,184.545715 
	C328.373444,186.327042 321.669067,187.647293 314.963074,188.508011 
	C314.970398,184.030533 314.979279,180.012604 314.988159,175.994659 
z"/>
<path fill="#155523" opacity="1.000000" stroke="none" 
	d="
M335.907288,217.547836 
	C331.450195,217.572296 328.147949,216.010071 326.485321,211.290619 
	C324.771332,206.425491 320.209442,205.938217 315.303528,205.516846 
	C314.910156,203.035980 314.925568,201.006454 315.369324,198.982727 
	C322.499237,199.332031 329.200806,199.675537 335.902405,200.019058 
	C335.919464,205.706100 335.936493,211.393158 335.907288,217.547836 
z"/>
<path fill="#154825" opacity="1.000000" stroke="none" 
	d="
M335.937195,199.552094 
	C329.200806,199.675537 322.499237,199.332031 315.362976,198.666534 
	C314.916199,197.922348 314.904114,197.500153 314.928772,196.625565 
	C314.960205,193.769547 314.954865,191.365921 314.958008,188.962646 
	C314.966553,188.962997 314.964661,188.967560 314.964661,188.967560 
	C321.669067,187.647293 328.373444,186.327042 335.500366,185.013214 
	C335.939270,189.708115 335.955627,194.396622 335.937195,199.552094 
z"/>
<path fill="#154825" opacity="1.000000" stroke="none" 
	d="
M324.401062,258.898651 
	C324.181915,257.567200 324.130096,256.146088 324.685486,255.026108 
	C327.026367,250.305603 329.462708,245.626297 332.062195,241.044296 
	C332.742035,239.845886 334.134918,239.051971 335.540649,238.019760 
	C335.911804,243.999344 335.942627,250.031479 335.983215,256.531799 
	C334.910950,257.656342 333.828918,258.312683 332.373413,258.981354 
	C329.615875,258.978302 327.231781,258.962921 324.401062,258.898651 
z"/>
<path fill="#9FD990" opacity="1.000000" stroke="none" 
	d="
M225.228973,402.989624 
	C216.977249,403.077393 208.924423,403.090851 200.399796,403.155273 
	C199.927994,403.206238 199.639420,402.963593 199.468079,402.452026 
	C199.308273,385.018005 199.319824,368.095551 199.331375,351.173126 
	C199.331375,351.173126 199.668915,351.083984 199.798569,350.967438 
	C207.973404,350.882477 216.018585,350.914062 224.529449,350.884888 
	C224.995132,350.824158 225.052444,351.103821 225.077087,351.682739 
	C225.093689,357.731445 224.959000,363.205200 225.129211,368.669464 
	C225.218964,371.551056 225.840622,374.416107 226.108765,377.727173 
	C225.946426,386.435028 225.897476,394.704376 225.848511,402.973694 
	C225.848511,402.973694 225.427872,402.915283 225.228973,402.989624 
z"/>
<path fill="#22583D" opacity="1.000000" stroke="none" 
	d="
M197.985626,402.945221 
	C191.338959,402.966248 184.689957,402.891205 178.046707,403.052856 
	C175.159958,403.123077 173.871460,402.355286 173.899704,399.168030 
	C174.030807,384.379517 174.032867,369.588531 173.898880,354.800049 
	C173.869446,351.552521 175.277298,350.908752 178.100677,350.972687 
	C184.412262,351.115631 190.728928,351.033234 197.518036,351.526520 
	C197.990234,368.988708 197.987930,385.966980 197.985626,402.945221 
z"/>
<path fill="#104F38" opacity="1.000000" stroke="none" 
	d="
M198.310028,402.944275 
	C197.987930,385.966980 197.990234,368.988708 197.984528,351.551910 
	C198.203217,351.089630 198.429901,351.085907 198.993988,351.127655 
	C199.319824,368.095551 199.308273,385.018005 199.287140,402.399078 
	C199.063187,402.886292 198.848801,402.914825 198.310028,402.944275 
z"/>
<path fill="#9FD990" opacity="1.000000" stroke="none" 
	d="
M277.726074,351.067352 
	C285.996948,350.981750 294.061188,350.962646 302.598022,350.897461 
	C303.070648,350.851349 303.331848,351.084137 303.506470,351.585266 
	C303.696594,369.010315 303.712097,385.934204 303.727600,402.858124 
	C303.727600,402.858124 303.363281,402.964783 303.217529,403.086304 
	C295.019623,403.161438 286.967438,403.115021 278.441650,403.065979 
	C277.968048,403.063293 277.571289,402.915253 277.352356,402.479431 
	C277.119598,385.048523 277.105743,368.053436 277.091888,351.058319 
	C277.091888,351.058319 277.519409,351.133850 277.726074,351.067352 
z"/>
<path fill="#22583D" opacity="1.000000" stroke="none" 
	d="
M305.023468,351.093048 
	C311.669891,351.066925 318.318726,351.137604 324.961578,350.969757 
	C327.858307,350.896576 329.128937,351.682373 329.100708,354.862366 
	C328.969513,369.650696 328.967529,384.441528 329.100830,399.229828 
	C329.130157,402.482758 327.706879,403.111938 324.891724,403.049835 
	C318.580078,402.910583 312.263519,402.994690 305.476562,402.503784 
	C305.010590,385.044189 305.017029,368.068604 305.023468,351.093048 
z"/>
<path fill="#104F38" opacity="1.000000" stroke="none" 
	d="
M304.683624,351.087952 
	C305.017029,368.068604 305.010590,385.044189 305.009277,402.482483 
	C304.799011,402.944794 304.583679,402.944366 304.047974,402.901031 
	C303.712097,385.934204 303.696594,369.010315 303.675598,351.630035 
	C303.894653,351.143402 304.119202,351.113129 304.683624,351.087952 
z"/>
<path fill="#070A08" opacity="1.000000" stroke="none" 
	d="
M276.618256,351.113190 
	C277.105743,368.053436 277.119598,385.048523 277.142700,402.508911 
	C260.370789,402.961426 243.589584,402.948700 226.328461,402.954834 
	C225.897476,394.704376 225.946426,386.435028 226.564468,377.762451 
	C235.199295,377.359222 243.265030,377.359222 251.863846,377.359222 
	C251.863846,368.236206 251.863846,359.661407 251.863846,351.086609 
	C259.957428,351.113770 268.051025,351.140930 276.618256,351.113190 
z"/>
<path fill="#D9DAD9" opacity="1.000000" stroke="none" 
	d="
M251.404602,351.074188 
	C251.863846,359.661407 251.863846,368.236206 251.863846,377.359222 
	C243.265030,377.359222 235.199295,377.359222 226.677856,377.323914 
	C225.840622,374.416107 225.218964,371.551056 225.129211,368.669464 
	C224.959000,363.205200 225.093689,357.731445 225.112854,351.820923 
	C233.731094,351.274078 242.338226,351.167908 251.404602,351.074188 
z"/>
<path fill="#30B24B" opacity="1.000000" stroke="none" 
	d="
M287.022339,282.456390 
	C296.080872,282.118927 305.192078,282.118927 313.974640,282.118927 
	C315.744202,284.347198 310.288666,288.056458 316.365814,288.882141 
	C316.682892,287.423187 316.982910,286.042816 317.525452,284.413177 
	C320.119720,287.435150 322.471405,290.706390 324.831787,294.296844 
	C317.491577,294.546539 310.142731,294.477051 302.010437,294.417755 
	C300.488129,294.331848 299.749207,294.235748 299.010284,294.139648 
	C296.568817,291.714783 294.156281,289.259705 291.674927,286.876343 
	C290.197540,285.457275 288.611938,284.150879 287.022339,282.456390 
z"/>
<path fill="#10051F" opacity="1.000000" stroke="none" 
	d="
M298.544556,294.198120 
	C299.749207,294.235748 300.488129,294.331848 301.565613,294.583191 
	C300.593903,295.157562 299.284424,295.939728 297.973206,295.942566 
	C266.552338,296.010590 235.131271,296.001801 203.710266,295.967224 
	C202.609818,295.966034 201.509811,295.557251 200.254593,295.026672 
	C202.437027,294.569672 204.774460,294.424408 207.551147,294.214600 
	C238.019867,294.185577 268.049347,294.221069 298.544556,294.198120 
z"/>
<path fill="#30B24B" opacity="1.000000" stroke="none" 
	d="
M185.634308,283.612915 
	C186.271835,286.710205 186.598846,289.979431 186.983521,293.668732 
	C184.148682,294.271423 181.256165,294.454041 178.006195,294.545410 
	C178.415833,293.168854 179.182938,291.883484 179.941513,290.278290 
	C181.729904,287.900574 183.526840,285.842712 185.634308,283.612915 
z"/>
<path fill="#111411" opacity="1.000000" stroke="none" 
	d="
M314.891998,197.077972 
	C314.904114,197.500153 314.916199,197.922348 314.934662,198.660721 
	C314.925568,201.006454 314.910156,203.035980 314.876160,205.495102 
	C314.857605,205.924683 314.377899,205.949585 313.806519,206.030060 
	C312.823853,207.073090 312.412537,208.035629 312.001282,209.466919 
	C311.999695,215.433685 311.732758,220.948547 312.081146,226.424271 
	C312.354675,230.723618 311.157471,232.162079 306.600861,232.106598 
	C285.944855,231.855164 265.283936,231.972122 244.625076,232.043671 
	C242.840744,232.049835 241.058624,232.693512 239.275467,233.041061 
	C239.379044,233.684601 239.482635,234.328140 239.586212,234.971680 
	C242.675110,234.971680 245.764008,234.971680 248.852890,234.971680 
	C248.837936,235.202805 248.822968,235.433945 248.808014,235.665070 
	C229.733765,235.665070 210.659515,235.665070 191.994476,235.665070 
	C190.903076,232.159271 189.944092,229.078857 188.721695,225.683655 
	C188.333466,220.569916 188.208633,215.770950 188.083801,210.972000 
	C188.397339,209.239471 188.710861,207.506958 189.040955,205.385437 
	C189.702469,203.530838 190.922516,202.056961 190.901657,200.600876 
	C190.731171,188.697784 190.329224,176.798019 189.998306,164.000748 
	C189.666382,160.069946 189.333801,157.035645 189.001221,154.001328 
	C188.998886,151.301056 188.996552,148.600769 188.989532,145.450562 
	C188.666901,137.226196 188.527969,129.439194 187.983414,121.680679 
	C187.369263,112.931007 189.040039,111.007072 198.562622,110.998886 
	C233.353745,110.999001 267.708710,110.999832 302.532440,110.999260 
	C305.701996,111.002647 308.402740,111.007439 311.552246,111.485382 
	C312.004303,137.649673 312.007629,163.340805 312.014954,189.431702 
	C312.976624,192.246948 313.934326,194.662460 314.891998,197.077972 
M215.094757,206.805328 
	C215.094757,206.805328 215.309525,206.870880 215.213959,207.718002 
	C219.137711,208.146667 223.061478,208.575317 227.115234,209.899643 
	C227.174927,212.901901 227.234619,215.904144 227.176453,219.744293 
	C230.787643,219.844452 234.398849,219.944626 238.794205,219.800385 
	C239.261810,215.772263 239.729416,211.744141 240.283539,206.970596 
	C235.819809,206.970596 232.406631,206.970596 228.780228,206.529343 
	C228.570892,206.262054 228.302429,206.083862 227.749847,205.081360 
	C227.749847,197.843292 227.749847,190.605209 227.749847,182.950928 
	C223.615356,182.950928 220.302719,182.950928 216.781128,182.519028 
	C216.575577,182.257721 216.312210,182.084106 215.772003,181.083374 
	C215.843155,174.389969 215.914307,167.696579 216.439545,160.789932 
	C216.627838,160.519745 216.816132,160.249542 217.894485,159.756607 
	C221.000870,159.756607 224.107254,159.756607 227.971939,159.756607 
	C227.971939,151.815033 227.971939,144.410812 228.444321,136.773026 
	C228.637146,136.484741 228.829971,136.196457 229.905960,135.663010 
	C233.142532,135.663010 236.379105,135.663010 239.558380,135.663010 
	C239.558380,131.025070 239.558380,127.259865 239.558380,123.249344 
	C235.407791,123.249344 231.520264,123.249344 227.152512,123.249344 
	C227.152512,127.217201 227.152512,130.955994 227.152512,135.183411 
	C222.965332,135.183411 219.233719,135.183411 214.940460,135.183411 
	C214.940460,142.797531 214.940460,149.901840 214.319778,157.073639 
	C213.882477,157.688690 213.445175,158.303757 212.112076,159.100433 
	C209.206039,159.100433 206.300003,159.100433 203.427887,159.100433 
	C203.427887,167.681961 203.427887,175.536560 203.427887,184.023941 
	C207.144852,184.023941 210.575394,184.023941 214.195267,184.449387 
	C214.376495,184.719345 214.623566,184.898499 215.128922,185.908417 
	C215.061798,192.611099 214.994675,199.313797 214.611557,206.206924 
	C214.736786,206.472107 214.862030,206.737289 215.094757,206.805328 
M276.923248,209.018799 
	C279.005310,209.019806 281.134766,209.290421 283.154266,208.935486 
	C284.734528,208.657745 286.178558,207.604599 287.827576,205.982529 
	C287.905273,198.984177 287.982941,191.985840 288.481781,184.787064 
	C288.740540,184.591995 288.911560,184.337860 289.892792,183.817245 
	C293.129303,183.817245 296.365814,183.817245 299.578735,183.817245 
	C299.578735,175.225296 299.578735,167.366287 299.578735,158.919144 
	C296.196045,158.919144 293.094238,158.919144 289.916870,158.299240 
	C289.297028,157.868027 288.677185,157.436813 287.871124,156.083801 
	C287.871124,149.175644 287.871124,142.267502 287.871124,134.873520 
	C283.440247,134.873520 279.714569,134.873520 275.536469,134.873520 
	C275.536469,130.641571 275.536469,126.913986 275.536469,123.408424 
	C271.171021,123.408424 267.286133,123.408424 263.430908,123.408424 
	C263.430908,127.582497 263.430908,131.339172 263.430908,135.371384 
	C267.102142,135.558624 270.539795,135.733948 274.197235,136.387772 
	C274.473877,136.593979 274.750519,136.800201 275.252075,137.919693 
	C275.252075,145.123520 275.252075,152.327362 275.252075,159.978928 
	C279.401550,159.978928 282.698181,159.978928 286.206451,160.433487 
	C286.475189,160.623230 286.743927,160.812988 287.230957,161.917587 
	C287.156616,168.611115 287.082275,175.304626 286.569702,182.192947 
	C286.288055,182.375305 286.101440,182.627884 285.111450,183.148254 
	C281.995667,183.148254 278.879883,183.148254 275.024261,183.148254 
	C275.024261,191.115570 275.024261,198.554916 274.577301,206.195145 
	C274.290375,206.382355 274.100037,206.640717 273.108643,207.175018 
	C269.869690,207.175018 266.630737,207.175018 263.341949,207.175018 
	C263.341949,211.623199 263.341949,215.258896 263.217010,219.731598 
	C267.232544,221.972885 273.396179,221.562820 275.852936,218.015808 
	C275.907532,215.011932 275.962128,212.008041 276.923248,209.018799 
z"/>
<path fill="#09180A" opacity="1.000000" stroke="none" 
	d="
M312.010986,189.031952 
	C312.007629,163.340805 312.004303,137.649673 312.002380,111.492996 
	C313.000061,112.593620 314.756287,114.113205 314.855621,115.734322 
	C315.208466,121.492264 314.996460,127.284813 315.002441,133.533051 
	C315.001526,141.688812 314.996582,149.375778 314.994598,157.531372 
	C314.986115,163.718811 314.974670,169.437607 314.975708,175.575546 
	C314.979279,180.012604 314.970398,184.030533 314.963074,188.508011 
	C314.964661,188.967560 314.966553,188.962997 314.591553,188.971741 
	C313.481354,188.997635 312.746185,189.014786 312.010986,189.031952 
z"/>
<path fill="#10231E" opacity="1.000000" stroke="none" 
	d="
M188.709412,154.282684 
	C189.333801,157.035645 189.666382,160.069946 189.995239,163.550598 
	C186.007950,161.429764 188.556458,157.772705 188.709412,154.282684 
z"/>
<path fill="#1D7930" opacity="1.000000" stroke="none" 
	d="
M291.991974,258.741272 
	C271.973816,258.787079 251.955673,258.832886 231.469055,258.423828 
	C230.183990,254.023026 229.188553,250.101074 228.653641,246.117279 
	C228.480560,244.828262 229.515717,243.377029 229.999817,242.408127 
	C230.650330,247.019470 230.459900,251.916992 236.671982,251.971878 
	C245.738449,252.051987 254.811310,252.184036 263.871613,251.935486 
	C270.541901,251.752487 271.988312,249.975372 271.999084,243.481232 
	C272.002411,241.483994 271.994873,239.486725 272.446411,237.372833 
	C279.931274,237.313004 286.962067,237.369812 293.994812,237.867065 
	C293.328491,245.118774 292.660217,251.930023 291.991974,258.741272 
z"/>
<path fill="#1B6F2F" opacity="1.000000" stroke="none" 
	d="
M219.010880,258.759125 
	C211.996674,258.802216 204.982483,258.845337 197.483826,258.498474 
	C195.263565,256.535309 193.475342,255.015244 191.808487,253.372086 
	C190.478439,252.060959 188.346390,250.673370 188.231567,249.191040 
	C187.921341,245.186264 188.497360,241.112854 189.217972,237.101562 
	C195.812332,237.245026 201.910492,237.353592 208.006622,237.884918 
	C208.003098,239.305847 207.980637,240.304520 208.003494,241.302170 
	C208.149902,247.695038 208.823914,253.685287 216.673782,255.510315 
	C217.651733,255.737671 218.241333,257.635376 219.010880,258.759125 
z"/>
<path fill="#176128" opacity="1.000000" stroke="none" 
	d="
M188.721771,237.066666 
	C188.497360,241.112854 187.921341,245.186264 188.231567,249.191040 
	C188.346390,250.673370 190.478439,252.060959 191.808487,253.372086 
	C193.475342,255.015244 195.263565,256.535309 197.020172,258.453186 
	C193.673660,258.839935 190.306381,258.881989 186.485352,258.878418 
	C183.302643,251.439133 180.445770,244.089523 177.880966,236.639343 
	C175.344574,229.271744 178.910889,214.075180 187.705444,210.985901 
	C188.208633,215.770950 188.333466,220.569916 188.703781,226.142426 
	C188.873444,230.299530 188.797607,233.683105 188.721771,237.066666 
z"/>
<path fill="#1B772B" opacity="1.000000" stroke="none" 
	d="
M219.467072,258.825806 
	C218.241333,257.635376 217.651733,255.737671 216.673782,255.510315 
	C208.823914,253.685287 208.149902,247.695038 208.003494,241.302170 
	C207.980637,240.304520 208.003098,239.305847 208.465424,237.777954 
	C215.957947,237.346527 222.989639,237.444778 230.016190,237.904770 
	C230.006744,239.511002 230.002457,240.755493 229.998169,242.000000 
	C229.515717,243.377029 228.480560,244.828262 228.653641,246.117279 
	C229.188553,250.101074 230.183990,254.023026 231.005432,258.360107 
	C227.314606,258.798309 223.618942,258.845367 219.467072,258.825806 
z"/>
<path fill="#1E7237" opacity="1.000000" stroke="none" 
	d="
M292.448456,258.816315 
	C292.660217,251.930023 293.328491,245.118774 294.453857,237.757233 
	C301.286652,237.253189 307.662292,237.299454 314.232117,237.683487 
	C316.251190,247.375198 314.980438,250.013092 307.208435,254.508224 
	C305.781586,255.333481 305.030762,257.327545 303.967896,258.782104 
	C300.280243,258.818512 296.592590,258.854950 292.448456,258.816315 
z"/>
<path fill="#1B6732" opacity="1.000000" stroke="none" 
	d="
M304.424927,258.849915 
	C305.030762,257.327545 305.781586,255.333481 307.208435,254.508224 
	C314.980438,250.013092 316.251190,247.375198 314.262451,237.182800 
	C314.060730,231.564316 314.022827,226.784302 314.279663,221.732819 
	C314.720856,218.976379 314.867371,216.491409 315.013885,214.006424 
	C320.233002,215.502609 322.613159,219.481110 323.567902,224.368454 
	C324.322418,228.230698 324.541656,232.197510 324.632385,236.597778 
	C323.176239,237.766525 321.426300,238.230530 321.102692,239.180435 
	C318.892853,245.667526 316.982697,252.256714 314.975891,258.812988 
	C311.611237,258.847870 308.246552,258.882782 304.424927,258.849915 
z"/>
<path fill="#176128" opacity="1.000000" stroke="none" 
	d="
M315.375610,258.868011 
	C316.982697,252.256714 318.892853,245.667526 321.102692,239.180435 
	C321.426300,238.230530 323.176239,237.766525 324.631897,237.039963 
	C327.581451,241.716507 324.418152,245.626266 323.047211,249.701172 
	C322.063477,252.625107 320.380066,255.313675 318.999634,258.460388 
	C317.918732,258.850006 316.847015,258.886505 315.375610,258.868011 
z"/>
<path fill="#050608" opacity="1.000000" stroke="none" 
	d="
M313.984955,222.004272 
	C314.022827,226.784302 314.060730,231.564316 314.068268,236.845032 
	C307.662292,237.299454 301.286652,237.253189 294.451935,237.316772 
	C286.962067,237.369812 279.931274,237.313004 271.990814,237.245255 
	C257.394562,237.337234 243.707947,237.440140 230.021347,237.543045 
	C222.989639,237.444778 215.957947,237.346527 208.467438,237.355225 
	C201.910492,237.353592 195.812332,237.245026 189.217957,237.101562 
	C188.797607,233.683105 188.873444,230.299530 188.967194,226.457199 
	C189.944092,229.078857 190.903076,232.159271 191.994476,235.665070 
	C210.659515,235.665070 229.733765,235.665070 248.808014,235.665070 
	C248.822968,235.433945 248.837936,235.202805 248.852890,234.971680 
	C245.764008,234.971680 242.675110,234.971680 239.586212,234.971680 
	C239.482635,234.328140 239.379044,233.684601 239.275467,233.041061 
	C241.058624,232.693512 242.840744,232.049835 244.625076,232.043671 
	C265.283936,231.972122 285.944855,231.855164 306.600861,232.106598 
	C311.157471,232.162079 312.354675,230.723618 312.081146,226.424271 
	C311.732758,220.948547 311.999695,215.433685 312.321625,209.469742 
	C313.068115,209.010620 313.494385,209.017426 313.920624,209.024231 
	C313.920624,209.024231 313.977631,209.506012 313.675110,210.025604 
	C313.576691,214.364883 313.780823,218.184586 313.984955,222.004272 
z"/>
<path fill="#124A1E" opacity="1.000000" stroke="none" 
	d="
M314.279663,221.732819 
	C313.780823,218.184586 313.576691,214.364883 313.678680,210.268158 
	C314.323547,211.084213 314.662323,212.177338 315.007507,213.638443 
	C314.867371,216.491409 314.720856,218.976379 314.279663,221.732819 
z"/>
<path fill="#09180A" opacity="1.000000" stroke="none" 
	d="
M313.950958,208.643524 
	C313.494385,209.017426 313.068115,209.010620 312.321533,209.000977 
	C312.412537,208.035629 312.823853,207.073090 313.566711,206.043243 
	C313.925934,206.738235 313.953613,207.500534 313.950958,208.643524 
z"/>
<path fill="#113121" opacity="1.000000" stroke="none" 
	d="
M312.014954,189.431702 
	C312.746185,189.014786 313.481354,188.997635 314.583008,188.971390 
	C314.954865,191.365921 314.960205,193.769547 314.928772,196.625565 
	C313.934326,194.662460 312.976624,192.246948 312.014954,189.431702 
z"/>
<path fill="#D3D7D3" opacity="1.000000" stroke="none" 
	d="
M227.971924,137.006592 
	C227.971939,144.410812 227.971939,151.815033 227.971939,159.756607 
	C224.107254,159.756607 221.000870,159.756607 217.128433,159.814606 
	C216.146591,159.894882 215.930786,159.917160 215.561371,159.845001 
	C215.221649,159.585678 215.098557,159.382553 215.070618,158.783569 
	C215.048660,157.952652 214.994568,157.479401 214.940460,157.006149 
	C214.940460,149.901840 214.940460,142.797531 214.940460,135.183411 
	C219.233719,135.183411 222.965332,135.183411 227.152512,135.183411 
	C227.152512,130.955994 227.152512,127.217201 227.152512,123.249344 
	C231.520264,123.249344 235.407791,123.249344 239.558380,123.249344 
	C239.558380,127.259865 239.558380,131.025070 239.558380,135.663010 
	C236.379105,135.663010 233.142532,135.663010 229.136551,135.764603 
	C228.235397,136.246323 228.103668,136.626450 227.971924,137.006592 
z"/>
<path fill="#D3D7D3" opacity="1.000000" stroke="none" 
	d="
M273.977448,135.909271 
	C270.539795,135.733948 267.102142,135.558624 263.430908,135.371384 
	C263.430908,131.339172 263.430908,127.582497 263.430908,123.408424 
	C267.286133,123.408424 271.171021,123.408424 275.536469,123.408424 
	C275.536469,126.913986 275.536469,130.641571 275.536469,134.873520 
	C279.714569,134.873520 283.440247,134.873520 287.871124,134.873520 
	C287.871124,142.267502 287.871124,149.175644 287.887146,156.895859 
	C287.922424,158.186234 287.941711,158.664566 287.891815,159.309753 
	C287.692200,159.689621 287.511719,159.844223 286.958313,159.906097 
	C286.421844,159.907501 286.208344,159.943207 285.994812,159.978928 
	C282.698181,159.978928 279.401550,159.978928 275.252075,159.978928 
	C275.252075,152.327362 275.252075,145.123520 275.163452,137.135818 
	C274.709045,136.204391 274.343231,136.056824 273.977448,135.909271 
z"/>
<path fill="#D4D9D3" opacity="1.000000" stroke="none" 
	d="
M287.281219,159.940399 
	C287.511719,159.844223 287.692200,159.689621 288.233765,159.295593 
	C289.094086,159.049408 289.543274,158.984283 289.992432,158.919144 
	C293.094238,158.919144 296.196045,158.919144 299.578735,158.919144 
	C299.578735,167.366287 299.578735,175.225296 299.578735,183.817245 
	C296.365814,183.817245 293.129303,183.817245 289.190430,183.842804 
	C288.311493,183.859619 288.134918,183.850861 287.875153,183.672836 
	C287.641724,183.291077 287.444397,183.140244 287.186523,182.781540 
	C287.118073,182.340729 287.063019,182.169434 287.007935,181.998154 
	C287.082275,175.304626 287.156616,168.611115 287.209839,161.199860 
	C287.219543,160.301544 287.250366,160.120972 287.281219,159.940399 
z"/>
<path fill="#D4D9D3" opacity="1.000000" stroke="none" 
	d="
M215.038498,159.141235 
	C215.098557,159.382553 215.221649,159.585678 215.608231,160.116226 
	C215.867599,160.655624 215.926514,160.829391 215.985443,161.003174 
	C215.914307,167.696579 215.843155,174.389969 215.798645,181.797577 
	C215.815781,182.691437 215.806259,182.871078 215.631653,183.141251 
	C215.262344,183.392014 215.120926,183.595825 214.777512,183.855591 
	C214.343781,183.919952 214.174866,183.971954 214.005951,184.023941 
	C210.575394,184.023941 207.144852,184.023941 203.427887,184.023941 
	C203.427887,175.536560 203.427887,167.681961 203.427887,159.100433 
	C206.300003,159.100433 209.206039,159.100433 212.891602,159.093628 
	C214.126923,159.104965 214.582703,159.123108 215.038498,159.141235 
z"/>
<path fill="#D4DCD3" opacity="1.000000" stroke="none" 
	d="
M287.199921,183.051071 
	C287.444397,183.140244 287.641724,183.291077 287.865173,183.962357 
	C287.979095,184.609924 288.019836,184.798706 288.060608,184.987488 
	C287.982941,191.985840 287.905273,198.984177 287.313843,206.465851 
	C282.881042,206.980453 278.961975,207.011734 275.029419,207.026108 
	C275.015961,207.009216 275.033936,207.037994 275.101990,206.776398 
	C275.121429,206.341293 275.072845,206.167770 275.024261,205.994247 
	C275.024261,198.554916 275.024261,191.115570 275.024261,183.148254 
	C278.879883,183.148254 281.995667,183.148254 285.855408,183.107040 
	C286.799530,183.060913 286.999725,183.056000 287.199921,183.051071 
z"/>
<path fill="#D4DCD3" opacity="1.000000" stroke="none" 
	d="
M215.042328,183.843231 
	C215.120926,183.595825 215.262344,183.392014 215.932709,183.148788 
	C216.595932,183.027512 216.793015,182.989227 216.990082,182.950928 
	C220.302719,182.950928 223.615356,182.950928 227.749847,182.950928 
	C227.749847,190.605209 227.749847,197.843292 227.789505,205.798279 
	C227.874786,206.689468 227.920425,206.863724 227.975082,207.023666 
	C227.984085,207.009354 227.957138,207.043045 227.500946,207.005035 
	C223.133026,206.934982 219.221268,206.902924 215.309525,206.870880 
	C215.309525,206.870880 215.094757,206.805328 215.080536,206.654114 
	C215.020081,206.340759 214.973831,206.178619 214.927567,206.016479 
	C214.994675,199.313797 215.061798,192.611099 215.094177,185.164978 
	C215.053726,184.228775 215.048019,184.035995 215.042328,183.843231 
z"/>
<path fill="#D4DCD3" opacity="1.000000" stroke="none" 
	d="
M228.993439,206.970596 
	C232.406631,206.970596 235.819809,206.970596 240.283539,206.970596 
	C239.729416,211.744141 239.261810,215.772263 238.133057,219.616287 
	C234.079376,219.256927 230.686829,219.081665 227.294312,218.906403 
	C227.234619,215.904144 227.174927,212.901901 227.317047,209.313446 
	C227.664948,208.165848 227.811035,207.604446 227.957138,207.043045 
	C227.957138,207.043045 227.984085,207.009354 228.235474,207.060974 
	C228.655731,207.065262 228.824585,207.017929 228.993439,206.970596 
z"/>
<path fill="#D4DCD3" opacity="1.000000" stroke="none" 
	d="
M263.341949,218.894592 
	C263.341949,215.258896 263.341949,211.623199 263.341949,207.175018 
	C266.630737,207.175018 269.869690,207.175018 273.810822,207.143585 
	C274.686646,207.087433 274.860291,207.062714 275.033936,207.037994 
	C275.033936,207.037994 275.015961,207.009216 275.004517,207.327194 
	C275.334290,208.098175 275.675507,208.551163 276.016724,209.004166 
	C275.962128,212.008041 275.907532,215.011932 275.340088,218.487045 
	C270.998779,218.937057 267.170380,218.915833 263.341949,218.894592 
z"/>
<path fill="#A1A9A1" opacity="1.000000" stroke="none" 
	d="
M227.500946,207.005035 
	C227.811035,207.604446 227.664948,208.165848 227.252045,208.865601 
	C223.061478,208.575317 219.137711,208.146667 215.261749,207.294434 
	C219.221268,206.902924 223.133026,206.934982 227.500946,207.005035 
z"/>
<path fill="#A1A9A1" opacity="1.000000" stroke="none" 
	d="
M263.279480,219.313095 
	C267.170380,218.915833 270.998779,218.937057 275.267303,218.929459 
	C273.396179,221.562820 267.232544,221.972885 263.279480,219.313095 
z"/>
<path fill="#A1A9A1" opacity="1.000000" stroke="none" 
	d="
M276.469971,209.011475 
	C275.675507,208.551163 275.334290,208.098175 275.018005,207.344086 
	C278.961975,207.011734 282.881042,206.980453 287.241608,206.922577 
	C286.178558,207.604599 284.734528,208.657745 283.154266,208.935486 
	C281.134766,209.290421 279.005310,209.019806 276.469971,209.011475 
z"/>
<path fill="#A1A9A1" opacity="1.000000" stroke="none" 
	d="
M227.235382,219.325348 
	C230.686829,219.081665 234.079376,219.256927 237.740967,219.738495 
	C234.398849,219.944626 230.787643,219.844452 227.235382,219.325348 
z"/>
<path fill="#040605" opacity="1.000000" stroke="none" 
	d="
M289.954651,158.609192 
	C289.543274,158.984283 289.094086,159.049408 288.302979,159.128723 
	C287.941711,158.664566 287.922424,158.186234 287.980255,157.356750 
	C288.677185,157.436813 289.297028,157.868027 289.954651,158.609192 
z"/>
<path fill="#040605" opacity="1.000000" stroke="none" 
	d="
M215.070618,158.783569 
	C214.582703,159.123108 214.126923,159.104965 213.339508,159.002838 
	C213.445175,158.303757 213.882477,157.688690 214.630127,157.039886 
	C214.994568,157.479401 215.048660,157.952652 215.070618,158.783569 
z"/>
<path fill="#000000" opacity="1.000000" stroke="none" 
	d="
M275.101990,206.776398 
	C274.860291,207.062714 274.686646,207.087433 274.259644,207.041199 
	C274.100037,206.640717 274.290375,206.382355 274.800781,206.094696 
	C275.072845,206.167770 275.121429,206.341293 275.101990,206.776398 
z"/>
<path fill="#000000" opacity="1.000000" stroke="none" 
	d="
M287.186523,182.781540 
	C286.999725,183.056000 286.799530,183.060913 286.304596,183.008255 
	C286.101440,182.627884 286.288055,182.375305 286.788818,182.095551 
	C287.063019,182.169434 287.118073,182.340729 287.186523,182.781540 
z"/>
<path fill="#000000" opacity="1.000000" stroke="none" 
	d="
M216.212494,160.896545 
	C215.926514,160.829391 215.867599,160.655624 215.761841,160.210632 
	C215.930786,159.917160 216.146591,159.894882 216.683411,159.925980 
	C216.816132,160.249542 216.627838,160.519745 216.212494,160.896545 
z"/>
<path fill="#000000" opacity="1.000000" stroke="none" 
	d="
M216.885605,182.734985 
	C216.793015,182.989227 216.595932,183.027512 216.097809,183.058243 
	C215.806259,182.871078 215.815781,182.691437 215.908173,182.254974 
	C216.312210,182.084106 216.575577,182.257721 216.885605,182.734985 
z"/>
<path fill="#000000" opacity="1.000000" stroke="none" 
	d="
M274.087341,136.148529 
	C274.343231,136.056824 274.709045,136.204391 275.050995,136.679169 
	C274.750519,136.800201 274.473877,136.593979 274.087341,136.148529 
z"/>
<path fill="#000000" opacity="1.000000" stroke="none" 
	d="
M228.208130,136.889801 
	C228.103668,136.626450 228.235397,136.246323 228.694962,135.887177 
	C228.829971,136.196457 228.637146,136.484741 228.208130,136.889801 
z"/>
<path fill="#000000" opacity="1.000000" stroke="none" 
	d="
M214.769562,206.111694 
	C214.973831,206.178619 215.020081,206.340759 215.026794,206.752686 
	C214.862030,206.737289 214.736786,206.472107 214.769562,206.111694 
z"/>
<path fill="#000000" opacity="1.000000" stroke="none" 
	d="
M286.958313,159.906097 
	C287.250366,160.120972 287.219543,160.301544 287.100677,160.742432 
	C286.743927,160.812988 286.475189,160.623230 286.100647,160.206207 
	C286.208344,159.943207 286.421844,159.907501 286.958313,159.906097 
z"/>
<path fill="#000000" opacity="1.000000" stroke="none" 
	d="
M288.271179,184.887268 
	C288.019836,184.798706 287.979095,184.609924 287.948364,184.131622 
	C288.134918,183.850861 288.311493,183.859619 288.741425,183.946533 
	C288.911560,184.337860 288.740540,184.591995 288.271179,184.887268 
z"/>
<path fill="#000000" opacity="1.000000" stroke="none" 
	d="
M214.777512,183.855591 
	C215.048019,184.035995 215.053726,184.228775 214.997955,184.704224 
	C214.623566,184.898499 214.376495,184.719345 214.100616,184.236664 
	C214.174866,183.971954 214.343781,183.919952 214.777512,183.855591 
z"/>
<path fill="#000000" opacity="1.000000" stroke="none" 
	d="
M228.886841,206.749969 
	C228.824585,207.017929 228.655731,207.065262 228.226471,207.075287 
	C227.920425,206.863724 227.874786,206.689468 227.901978,206.255005 
	C228.302429,206.083862 228.570892,206.262054 228.886841,206.749969 
z"/>
<path fill="#1E7D35" opacity="1.000000" stroke="none" 
	d="
M230.016190,237.904770 
	C243.707947,237.440140 257.394562,237.337234 271.536743,237.361908 
	C271.994873,239.486725 272.002411,241.483994 271.999084,243.481232 
	C271.988312,249.975372 270.541901,251.752487 263.871613,251.935486 
	C254.811310,252.184036 245.738449,252.051987 236.671982,251.971878 
	C230.459900,251.916992 230.650330,247.019470 229.999817,242.408127 
	C230.002457,240.755493 230.006744,239.511002 230.016190,237.904770 
z"/>
</svg>